<svg xmlns="http://www.w3.org/2000/svg" xmlns:xlink="http://www.w3.org/1999/xlink" width="2000" zoomAndPan="magnify" viewBox="0 0 1500 1499.999933" height="2000" preserveAspectRatio="xMidYMid meet" version="1.0"><defs><clipPath id="2f3d46a4c6"><path d="M 13.925781 13.925781 L 1486.175781 13.925781 L 1486.175781 1486.175781 L 13.925781 1486.175781 Z M 13.925781 13.925781 " clip-rule="nonzero"/></clipPath><clipPath id="8a743b28fb"><path d="M 437.210938 246.976562 L 1062.710938 246.976562 L 1062.710938 1252.726562 L 437.210938 1252.726562 Z M 437.210938 246.976562 " clip-rule="nonzero"/></clipPath><clipPath id="8b2948958c"><path d="M 437.210938 246.976562 L 800 246.976562 L 800 1252.726562 L 437.210938 1252.726562 Z M 437.210938 246.976562 " clip-rule="nonzero"/></clipPath><clipPath id="0d5af119a9"><path d="M 508 246.976562 L 1062.710938 246.976562 L 1062.710938 1207 L 508 1207 Z M 508 246.976562 " clip-rule="nonzero"/></clipPath></defs><g clip-path="url(#2f3d46a4c6)"><path fill="#2a2a2a" d="M 749.992188 162.800781 C 1074.292969 162.800781 1337.195312 425.699219 1337.195312 750.003906 C 1337.195312 1074.308594 1074.292969 1337.210938 749.992188 1337.210938 C 425.691406 1337.210938 162.785156 1074.308594 162.785156 750.003906 C 162.785156 425.699219 425.691406 162.800781 749.992188 162.800781 Z M 749.992188 1370.40625 C 598.535156 1370.40625 452.6875 1315.242188 339.335938 1215.089844 C 253.835938 1139.527344 190.890625 1042.324219 157.3125 933.992188 L 117.339844 946.390625 C 153.199219 1062.042969 220.382812 1165.800781 311.625 1246.4375 C 432.640625 1353.355469 588.320312 1412.242188 749.992188 1412.242188 Z M 1349.707031 1031.363281 C 1391.214844 942.992188 1412.261719 848.335938 1412.261719 750.007812 L 1370.414062 750.007812 C 1370.414062 842.136719 1350.703125 930.8125 1311.835938 1013.5625 C 1236.082031 1174.753906 1094.828125 1295.785156 924.304688 1345.59375 L 936.046875 1385.769531 C 1118.074219 1332.582031 1268.847656 1203.402344 1349.707031 1031.363281 Z M 1261.984375 329.933594 C 1149.253906 192.644531 990.1875 107.714844 814.089844 90.796875 C 792.921875 88.769531 771.347656 87.742188 749.992188 87.742188 L 749.992188 129.585938 C 770.023438 129.585938 790.242188 130.550781 810.101562 132.449219 C 975.03125 148.296875 1124.015625 227.863281 1229.648438 356.492188 Z M 342.863281 281.847656 L 315.386719 250.285156 C 170.710938 376.207031 87.734375 558.351562 87.734375 750.007812 L 129.582031 750.007812 C 129.582031 570.460938 207.320312 399.820312 342.863281 281.847656 Z M 1486.070312 750.007812 C 1486.070312 676.828125 1475.347656 604.558594 1454.222656 535.214844 C 1427.515625 447.542969 1385.035156 366.4375 1327.957031 294.148438 C 1187.308594 116.0625 976.652344 13.929688 749.992188 13.929688 L 749.992188 55.773438 C 963.769531 55.773438 1162.457031 152.113281 1295.105469 320.082031 C 1348.945312 388.261719 1389.015625 464.746094 1414.191406 547.40625 C 1434.113281 612.796875 1444.21875 680.960938 1444.21875 750.007812 C 1444.21875 824.386719 1432.523438 897.582031 1409.457031 967.554688 L 1449.203125 980.652344 C 1473.664062 906.441406 1486.070312 828.839844 1486.070312 750.007812 Z M 270.316406 248.164062 C 351.015625 170.992188 450.042969 113.890625 556.679688 83.042969 L 545.050781 42.839844 C 431.957031 75.558594 326.953125 136.101562 241.398438 217.917969 C 157.792969 297.84375 93.445312 397.492188 55.3125 506.082031 L 94.789062 519.953125 C 130.753906 417.539062 191.449219 323.558594 270.316406 248.164062 Z M 900.34375 1470.6875 C 1022.867188 1445.246094 1137.800781 1388.195312 1232.703125 1305.699219 L 1205.253906 1274.113281 C 1115.746094 1351.925781 1007.371094 1405.722656 891.855469 1429.710938 C 845.433594 1439.335938 797.707031 1444.21875 749.996094 1444.21875 C 631.449219 1444.21875 514.464844 1413.839844 411.679688 1356.359375 C 302.554688 1295.328125 211.710938 1205.886719 148.976562 1097.695312 C 87.992188 992.523438 55.765625 872.289062 55.777344 750.003906 L 13.925781 750.003906 C 13.917969 879.652344 48.089844 1007.140625 112.761719 1118.683594 C 179.269531 1233.367188 275.558594 1328.1875 391.242188 1392.875 C 500.253906 1453.835938 624.304688 1486.0625 749.992188 1486.0625 C 800.554688 1486.066406 851.136719 1480.894531 900.34375 1470.6875 Z M 900.34375 1470.6875 " fill-opacity="1" fill-rule="nonzero"/></g><g clip-path="url(#8a743b28fb)"><path fill="#d9d9d9" d="M 1041.828125 797.003906 C 1027.832031 771.242188 1009.613281 749.335938 987.148438 731.289062 C 964.683594 713.253906 939.46875 698.34375 911.5 686.554688 C 883.507812 674.789062 855.53125 664.464844 827.558594 655.632812 L 827.558594 491.632812 C 829.429688 492.3125 831.304688 492.957031 833.171875 493.6875 C 858.574219 503.628906 879.734375 518.175781 896.683594 537.316406 L 954.308594 477.554688 C 959.078125 481.773438 963.585938 486.273438 967.832031 491.0625 L 1057.292969 398.289062 C 1027.09375 372.527344 991.382812 353.191406 950.15625 340.300781 C 908.910156 327.433594 868.042969 320.613281 827.5625 319.875 L 827.5625 246.976562 L 767.914062 246.976562 L 696.769531 293.226562 L 696.769531 336.285156 C 691.925781 337.882812 687.101562 339.554688 682.316406 341.40625 C 654.703125 352.089844 630.027344 366.632812 608.316406 385.039062 C 605.613281 387.328125 602.984375 389.679688 600.421875 392.085938 C 577.117188 402.25 556.023438 415.308594 537.171875 431.289062 C 515.453125 449.699219 498.136719 471.976562 485.269531 498.105469 C 472.375 524.257812 465.9375 553.882812 465.9375 587.023438 C 465.9375 622.359375 471.816406 652.378906 483.609375 677.035156 C 495.382812 701.710938 511.777344 722.863281 532.757812 740.539062 C 553.742188 758.210938 578.214844 772.761719 606.203125 784.171875 C 634.179688 795.589844 664.363281 805.703125 696.773438 814.539062 L 696.773438 997.082031 C 691.4375 994.835938 686.078125 992.445312 680.667969 989.742188 C 650.464844 974.65625 625.441406 955.324219 605.554688 931.753906 L 534.414062 978.003906 L 437.21875 1070.777344 C 472.558594 1104.65625 512.492188 1129.867188 557.046875 1146.441406 C 601.59375 1163.007812 648.171875 1172.007812 696.769531 1173.496094 L 696.769531 1253.019531 L 756.417969 1253.019531 L 827.558594 1206.769531 L 827.558594 1162.65625 C 833.53125 1160.9375 839.460938 1159.0625 845.324219 1156.933594 C 873.660156 1146.628906 898.699219 1131.71875 920.429688 1112.199219 C 922.300781 1110.523438 924.089844 1108.757812 925.890625 1107.011719 C 950.382812 1096.945312 972.285156 1083.273438 991.574219 1065.949219 C 1013.285156 1046.453125 1030.59375 1022.148438 1043.484375 993.046875 C 1056.355469 963.96875 1062.808594 930.28125 1062.808594 891.992188 C 1062.808594 854.441406 1055.808594 822.789062 1041.828125 797.003906 Z M 682.21875 481.304688 C 686.96875 480.242188 691.796875 479.347656 696.769531 478.78125 L 696.769531 603.371094 C 678.683594 587.570312 669.613281 564.492188 669.613281 534.140625 C 669.613281 513.109375 673.832031 495.511719 682.21875 481.304688 Z M 829.859375 872.527344 C 849.359375 889.09375 859.128906 913.578125 859.128906 945.976562 C 859.128906 971.785156 853.402344 993.792969 842.003906 1012.003906 C 837.339844 1012.738281 832.539062 1013.246094 827.558594 1013.484375 L 827.558594 870.679688 C 828.320312 871.300781 829.117188 871.898438 829.859375 872.527344 Z M 829.859375 872.527344 " fill-opacity="1" fill-rule="nonzero"/></g><g clip-path="url(#8b2948958c)"><path fill="#b0b0b0" d="M 787.003906 1146.945312 C 789.855469 1161.890625 767.910156 1206.769531 767.910156 1206.769531 L 696.769531 1253.019531 L 696.769531 1173.496094 L 767.910156 1127.246094 C 767.910156 1127.246094 784.402344 1133.335938 787.003906 1146.945312 Z M 785.585938 657.617188 C 825.445312 621.792969 767.910156 432.53125 767.910156 432.53125 L 696.769531 478.78125 L 696.769531 603.371094 C 696.769531 603.371094 745.722656 693.4375 785.585938 657.617188 Z M 779.613281 331.550781 C 800.109375 312.496094 767.910156 246.976562 767.910156 246.976562 L 696.769531 293.226562 L 696.769531 336.285156 C 733.707031 355.746094 759.121094 350.601562 779.613281 331.550781 Z M 696.769531 814.539062 L 696.769531 997.082031 C 696.769531 997.082031 787.878906 1080.492188 793.996094 1014.964844 C 795.277344 989.464844 767.914062 768.289062 767.914062 768.289062 Z M 534.410156 978.003906 L 437.21875 1070.777344 L 508.359375 1024.527344 C 508.359375 1024.527344 600.175781 1000.453125 607.058594 969.566406 C 609.222656 959.84375 605.554688 931.753906 605.554688 931.753906 Z M 534.410156 978.003906 " fill-opacity="1" fill-rule="nonzero"/></g><g clip-path="url(#0d5af119a9)"><path fill="#2a2a2a" d="M 827.558594 319.871094 C 868.039062 320.609375 908.910156 327.433594 950.15625 340.300781 C 991.382812 353.191406 1027.089844 372.523438 1057.289062 398.285156 L 967.828125 491.0625 C 950.875 471.921875 929.71875 457.378906 904.3125 447.4375 C 878.917969 437.492188 853.320312 432.527344 827.558594 432.527344 L 827.558594 655.632812 C 855.53125 664.46875 883.507812 674.789062 911.5 686.554688 C 939.46875 698.34375 964.679688 713.253906 987.148438 731.289062 C 1009.613281 749.335938 1027.832031 771.242188 1041.828125 797.003906 C 1055.808594 822.789062 1062.8125 854.441406 1062.8125 891.992188 C 1062.8125 930.28125 1056.355469 963.96875 1043.488281 993.046875 C 1030.59375 1022.148438 1013.289062 1046.449219 991.574219 1065.949219 C 969.84375 1085.46875 944.808594 1100.375 916.472656 1110.683594 C 888.109375 1120.980469 858.484375 1126.503906 827.5625 1127.246094 L 827.5625 1206.769531 L 767.914062 1206.769531 L 767.914062 1127.246094 C 719.316406 1125.757812 672.738281 1116.757812 628.191406 1100.1875 C 583.640625 1083.617188 543.707031 1058.40625 508.359375 1024.527344 L 605.554688 931.753906 C 625.4375 955.320312 650.460938 974.65625 680.664062 989.738281 C 710.847656 1004.835938 739.921875 1012.761719 767.914062 1013.484375 L 767.914062 768.289062 C 735.503906 759.449219 705.320312 749.335938 677.347656 737.921875 C 649.363281 726.515625 624.886719 711.960938 603.902344 694.289062 C 582.917969 676.613281 566.527344 655.457031 554.75 630.78125 C 542.960938 606.121094 537.078125 576.105469 537.078125 540.769531 C 537.078125 507.628906 543.519531 478.003906 556.410156 451.855469 C 569.28125 425.726562 586.59375 403.449219 608.320312 385.039062 C 630.03125 366.632812 654.703125 352.089844 682.316406 341.40625 C 709.929688 330.742188 738.464844 324.285156 767.917969 322.082031 L 767.917969 246.976562 L 827.5625 246.976562 L 827.5625 319.871094 Z M 767.910156 432.53125 C 742.132812 435.484375 719.316406 445.058594 699.4375 461.246094 C 679.558594 477.449219 669.613281 501.75 669.613281 534.140625 C 669.613281 565.0625 679.003906 588.453125 697.777344 604.273438 C 716.558594 620.113281 739.921875 632.078125 767.914062 640.167969 Z M 827.558594 1013.484375 C 858.480469 1012.019531 883.328125 1000.972656 902.109375 980.351562 C 920.882812 959.75 930.277344 932.859375 930.277344 899.726562 C 930.277344 867.332031 920.503906 842.847656 901.003906 826.277344 C 881.492188 809.703125 856.996094 796.285156 827.558594 785.960938 Z M 827.558594 1013.484375 " fill-opacity="1" fill-rule="nonzero"/></g></svg>